<?xml version="1.0" encoding="utf-8" standalone="no"?>
<!DOCTYPE svg PUBLIC "-//W3C//DTD SVG 1.1//EN"
  "http://www.w3.org/Graphics/SVG/1.1/DTD/svg11.dtd">
<!-- Created with matplotlib (https://matplotlib.org/) -->
<svg height="468pt" version="1.1" viewBox="0 0 864 468" width="864pt" xmlns="http://www.w3.org/2000/svg" xmlns:xlink="http://www.w3.org/1999/xlink">
 <defs>
  <style type="text/css">
*{stroke-linecap:butt;stroke-linejoin:round;}
  </style>
 </defs>
 <g id="figure_1">
  <g id="patch_1">
   <path d="M 0 468 
L 864 468 
L 864 0 
L 0 0 
z
" style="fill:#ffffff;"/>
  </g>
  <g id="patch_2">
   <path d="M 0 468 
L 864 468 
L 864 0 
L 0 0 
z
" style="fill:#ffffff;"/>
  </g>
  <g id="pane3d_1">
   <g id="patch_3">
    <path d="M 284.606564 258.583819 
L 725.272007 291.499618 
L 739.853143 67.922919 
L 276.556776 38.413428 
" style="fill:#f2f2f2;opacity:0.5;stroke:#f2f2f2;stroke-linejoin:miter;"/>
   </g>
  </g>
  <g id="pane3d_2">
   <g id="patch_4">
    <path d="M 284.606564 258.583819 
L 144.010904 389.309421 
L 127.443514 156.001506 
L 276.556776 38.413428 
" style="fill:#e6e6e6;opacity:0.5;stroke:#e6e6e6;stroke-linejoin:miter;"/>
   </g>
  </g>
  <g id="pane3d_3">
   <g id="patch_5">
    <path d="M 284.606564 258.583819 
L 144.010904 389.309421 
L 620.848248 428.323714 
L 725.272007 291.499618 
" style="fill:#ececec;opacity:0.5;stroke:#ececec;stroke-linejoin:miter;"/>
   </g>
  </g>
  <g id="axis3d_1">
   <g id="line2d_1">
    <path d="M 725.272007 291.499618 
L 620.848248 428.323714 
" style="fill:none;stroke:#000000;stroke-linecap:square;stroke-width:0.8;"/>
   </g>
   <g id="text_1">
    <!-- x -->
    <defs>
     <path d="M 54.890625 54.6875 
L 35.109375 28.078125 
L 55.90625 0 
L 45.3125 0 
L 29.390625 21.484375 
L 13.484375 0 
L 2.875 0 
L 24.125 28.609375 
L 4.6875 54.6875 
L 15.28125 54.6875 
L 29.78125 35.203125 
L 44.28125 54.6875 
z
" id="DejaVuSans-120"/>
    </defs>
    <g transform="translate(705.191041 378.068717)scale(0.1 -0.1)">
     <use xlink:href="#DejaVuSans-120"/>
    </g>
   </g>
   <g id="Line3DCollection_1">
    <path d="M 719.785122 298.68896 
L 277.205483 265.465331 
L 268.740313 44.577352 
" style="fill:none;stroke:#b0b0b0;stroke-width:0.8;"/>
    <path d="M 704.745495 318.395044 
L 256.926744 284.320467 
L 247.304721 61.481081 
" style="fill:none;stroke:#b0b0b0;stroke-width:0.8;"/>
    <path d="M 689.313801 338.614844 
L 236.131122 303.656201 
L 225.294229 78.838165 
" style="fill:none;stroke:#b0b0b0;stroke-width:0.8;"/>
    <path d="M 673.474508 359.368713 
L 214.798599 323.491144 
L 202.685395 96.667091 
" style="fill:none;stroke:#b0b0b0;stroke-width:0.8;"/>
    <path d="M 657.211249 380.678093 
L 192.908109 343.844884 
L 179.453485 114.987364 
" style="fill:none;stroke:#b0b0b0;stroke-width:0.8;"/>
    <path d="M 640.506773 402.565592 
L 170.437473 364.738042 
L 155.572381 133.81958 
" style="fill:none;stroke:#b0b0b0;stroke-width:0.8;"/>
    <path d="M 623.342876 425.055058 
L 147.363317 386.192353 
L 131.014486 153.1855 
" style="fill:none;stroke:#b0b0b0;stroke-width:0.8;"/>
   </g>
   <g id="xtick_1">
    <g id="line2d_2">
     <path d="M 716.166617 298.417326 
L 727.025984 299.232518 
" style="fill:none;stroke:#000000;stroke-linecap:square;stroke-width:0.8;"/>
    </g>
    <g id="text_2">
     <!-- 0 -->
     <defs>
      <path d="M 31.78125 66.40625 
Q 24.171875 66.40625 20.328125 58.90625 
Q 16.5 51.421875 16.5 36.375 
Q 16.5 21.390625 20.328125 13.890625 
Q 24.171875 6.390625 31.78125 6.390625 
Q 39.453125 6.390625 43.28125 13.890625 
Q 47.125 21.390625 47.125 36.375 
Q 47.125 51.421875 43.28125 58.90625 
Q 39.453125 66.40625 31.78125 66.40625 
z
M 31.78125 74.21875 
Q 44.046875 74.21875 50.515625 64.515625 
Q 56.984375 54.828125 56.984375 36.375 
Q 56.984375 17.96875 50.515625 8.265625 
Q 44.046875 -1.421875 31.78125 -1.421875 
Q 19.53125 -1.421875 13.0625 8.265625 
Q 6.59375 17.96875 6.59375 36.375 
Q 6.59375 54.828125 13.0625 64.515625 
Q 19.53125 74.21875 31.78125 74.21875 
z
" id="DejaVuSans-48"/>
     </defs>
     <g transform="translate(731.136207 314.474688)scale(0.1 -0.1)">
      <use xlink:href="#DejaVuSans-48"/>
     </g>
    </g>
   </g>
   <g id="xtick_2">
    <g id="line2d_3">
     <path d="M 701.083142 318.116376 
L 712.07415 318.952683 
" style="fill:none;stroke:#000000;stroke-linecap:square;stroke-width:0.8;"/>
    </g>
    <g id="text_3">
     <!-- 50 -->
     <defs>
      <path d="M 10.796875 72.90625 
L 49.515625 72.90625 
L 49.515625 64.59375 
L 19.828125 64.59375 
L 19.828125 46.734375 
Q 21.96875 47.46875 24.109375 47.828125 
Q 26.265625 48.1875 28.421875 48.1875 
Q 40.625 48.1875 47.75 41.5 
Q 54.890625 34.8125 54.890625 23.390625 
Q 54.890625 11.625 47.5625 5.09375 
Q 40.234375 -1.421875 26.90625 -1.421875 
Q 22.3125 -1.421875 17.546875 -0.640625 
Q 12.796875 0.140625 7.71875 1.703125 
L 7.71875 11.625 
Q 12.109375 9.234375 16.796875 8.0625 
Q 21.484375 6.890625 26.703125 6.890625 
Q 35.15625 6.890625 40.078125 11.328125 
Q 45.015625 15.765625 45.015625 23.390625 
Q 45.015625 31 40.078125 35.4375 
Q 35.15625 39.890625 26.703125 39.890625 
Q 22.75 39.890625 18.8125 39.015625 
Q 14.890625 38.140625 10.796875 36.28125 
z
" id="DejaVuSans-53"/>
     </defs>
     <g transform="translate(713.115911 334.267978)scale(0.1 -0.1)">
      <use xlink:href="#DejaVuSans-53"/>
      <use x="63.623047" xlink:href="#DejaVuSans-48"/>
     </g>
    </g>
   </g>
   <g id="xtick_3">
    <g id="line2d_4">
     <path d="M 685.606528 338.328864 
L 696.732396 339.187117 
" style="fill:none;stroke:#000000;stroke-linecap:square;stroke-width:0.8;"/>
    </g>
    <g id="text_4">
     <!-- 100 -->
     <defs>
      <path d="M 12.40625 8.296875 
L 28.515625 8.296875 
L 28.515625 63.921875 
L 10.984375 60.40625 
L 10.984375 69.390625 
L 28.421875 72.90625 
L 38.28125 72.90625 
L 38.28125 8.296875 
L 54.390625 8.296875 
L 54.390625 0 
L 12.40625 0 
z
" id="DejaVuSans-49"/>
     </defs>
     <g transform="translate(694.709137 354.576778)scale(0.1 -0.1)">
      <use xlink:href="#DejaVuSans-49"/>
      <use x="63.623047" xlink:href="#DejaVuSans-48"/>
      <use x="127.246094" xlink:href="#DejaVuSans-48"/>
     </g>
    </g>
   </g>
   <g id="xtick_4">
    <g id="line2d_5">
     <path d="M 669.721204 359.07513 
L 680.985269 359.956204 
" style="fill:none;stroke:#000000;stroke-linecap:square;stroke-width:0.8;"/>
    </g>
    <g id="text_5">
     <!-- 150 -->
     <g transform="translate(679.081836 375.421494)scale(0.1 -0.1)">
      <use xlink:href="#DejaVuSans-49"/>
      <use x="63.623047" xlink:href="#DejaVuSans-53"/>
      <use x="127.246094" xlink:href="#DejaVuSans-48"/>
     </g>
    </g>
   </g>
   <g id="xtick_5">
    <g id="line2d_6">
     <path d="M 653.410762 380.376601 
L 664.816486 381.281418 
" style="fill:none;stroke:#000000;stroke-linecap:square;stroke-width:0.8;"/>
    </g>
    <g id="text_6">
     <!-- 200 -->
     <defs>
      <path d="M 19.1875 8.296875 
L 53.609375 8.296875 
L 53.609375 0 
L 7.328125 0 
L 7.328125 8.296875 
Q 12.9375 14.109375 22.625 23.890625 
Q 32.328125 33.6875 34.8125 36.53125 
Q 39.546875 41.84375 41.421875 45.53125 
Q 43.3125 49.21875 43.3125 52.78125 
Q 43.3125 58.59375 39.234375 62.25 
Q 35.15625 65.921875 28.609375 65.921875 
Q 23.96875 65.921875 18.8125 64.3125 
Q 13.671875 62.703125 7.8125 59.421875 
L 7.8125 69.390625 
Q 13.765625 71.78125 18.9375 73 
Q 24.125 74.21875 28.421875 74.21875 
Q 39.75 74.21875 46.484375 68.546875 
Q 53.21875 62.890625 53.21875 53.421875 
Q 53.21875 48.921875 51.53125 44.890625 
Q 49.859375 40.875 45.40625 35.40625 
Q 44.1875 33.984375 37.640625 27.21875 
Q 31.109375 20.453125 19.1875 8.296875 
z
" id="DejaVuSans-50"/>
     </defs>
     <g transform="translate(663.036644 396.823622)scale(0.1 -0.1)">
      <use xlink:href="#DejaVuSans-50"/>
      <use x="63.623047" xlink:href="#DejaVuSans-48"/>
      <use x="127.246094" xlink:href="#DejaVuSans-48"/>
     </g>
    </g>
   </g>
   <g id="xtick_6">
    <g id="line2d_7">
     <path d="M 636.657906 402.255865 
L 648.208882 403.185398 
" style="fill:none;stroke:#000000;stroke-linecap:square;stroke-width:0.8;"/>
    </g>
    <g id="text_7">
     <!-- 250 -->
     <g transform="translate(646.556569 418.805824)scale(0.1 -0.1)">
      <use xlink:href="#DejaVuSans-50"/>
      <use x="63.623047" xlink:href="#DejaVuSans-53"/>
      <use x="127.246094" xlink:href="#DejaVuSans-48"/>
     </g>
    </g>
   </g>
   <g id="xtick_7">
    <g id="line2d_8">
     <path d="M 619.444388 424.736755 
L 631.144347 425.692032 
" style="fill:none;stroke:#000000;stroke-linecap:square;stroke-width:0.8;"/>
    </g>
    <g id="text_8">
     <!-- 300 -->
     <defs>
      <path d="M 40.578125 39.3125 
Q 47.65625 37.796875 51.625 33 
Q 55.609375 28.21875 55.609375 21.1875 
Q 55.609375 10.40625 48.1875 4.484375 
Q 40.765625 -1.421875 27.09375 -1.421875 
Q 22.515625 -1.421875 17.65625 -0.515625 
Q 12.796875 0.390625 7.625 2.203125 
L 7.625 11.71875 
Q 11.71875 9.328125 16.59375 8.109375 
Q 21.484375 6.890625 26.8125 6.890625 
Q 36.078125 6.890625 40.9375 10.546875 
Q 45.796875 14.203125 45.796875 21.1875 
Q 45.796875 27.640625 41.28125 31.265625 
Q 36.765625 34.90625 28.71875 34.90625 
L 20.21875 34.90625 
L 20.21875 43.015625 
L 29.109375 43.015625 
Q 36.375 43.015625 40.234375 45.921875 
Q 44.09375 48.828125 44.09375 54.296875 
Q 44.09375 59.90625 40.109375 62.90625 
Q 36.140625 65.921875 28.71875 65.921875 
Q 24.65625 65.921875 20.015625 65.03125 
Q 15.375 64.15625 9.8125 62.3125 
L 9.8125 71.09375 
Q 15.4375 72.65625 20.34375 73.4375 
Q 25.25 74.21875 29.59375 74.21875 
Q 40.828125 74.21875 47.359375 69.109375 
Q 53.90625 64.015625 53.90625 55.328125 
Q 53.90625 49.265625 50.4375 45.09375 
Q 46.96875 40.921875 40.578125 39.3125 
z
" id="DejaVuSans-51"/>
     </defs>
     <g transform="translate(629.623689 441.392007)scale(0.1 -0.1)">
      <use xlink:href="#DejaVuSans-51"/>
      <use x="63.623047" xlink:href="#DejaVuSans-48"/>
      <use x="127.246094" xlink:href="#DejaVuSans-48"/>
     </g>
    </g>
   </g>
  </g>
  <g id="axis3d_2">
   <g id="line2d_9">
    <path d="M 144.010904 389.309421 
L 620.848248 428.323714 
" style="fill:none;stroke:#000000;stroke-linecap:square;stroke-width:0.8;"/>
   </g>
   <g id="text_9">
    <!-- t -->
    <defs>
     <path d="M 18.3125 70.21875 
L 18.3125 54.6875 
L 36.8125 54.6875 
L 36.8125 47.703125 
L 18.3125 47.703125 
L 18.3125 18.015625 
Q 18.3125 11.328125 20.140625 9.421875 
Q 21.96875 7.515625 27.59375 7.515625 
L 36.8125 7.515625 
L 36.8125 0 
L 27.59375 0 
Q 17.1875 0 13.234375 3.875 
Q 9.28125 7.765625 9.28125 18.015625 
L 9.28125 47.703125 
L 2.6875 47.703125 
L 2.6875 54.6875 
L 9.28125 54.6875 
L 9.28125 70.21875 
z
" id="DejaVuSans-116"/>
    </defs>
    <g transform="translate(368.210787 437.954768)scale(0.1 -0.1)">
     <use xlink:href="#DejaVuSans-116"/>
    </g>
   </g>
   <g id="Line3DCollection_2">
    <path d="M 305.412093 40.251356 
L 312.081141 260.636051 
L 173.686793 391.737469 
" style="fill:none;stroke:#b0b0b0;stroke-width:0.8;"/>
    <path d="M 356.349546 43.495799 
L 360.571876 264.258098 
L 226.080165 396.024235 
" style="fill:none;stroke:#b0b0b0;stroke-width:0.8;"/>
    <path d="M 407.547282 46.75682 
L 409.298383 267.897757 
L 278.750764 400.333684 
" style="fill:none;stroke:#b0b0b0;stroke-width:0.8;"/>
    <path d="M 459.007302 50.034547 
L 458.262385 271.555156 
L 331.700797 404.665996 
" style="fill:none;stroke:#b0b0b0;stroke-width:0.8;"/>
    <path d="M 510.731628 53.329109 
L 507.465624 275.230425 
L 384.932493 409.021353 
" style="fill:none;stroke:#b0b0b0;stroke-width:0.8;"/>
    <path d="M 562.722299 56.640635 
L 556.909857 278.923695 
L 438.448106 413.39994 
" style="fill:none;stroke:#b0b0b0;stroke-width:0.8;"/>
    <path d="M 614.98138 59.969258 
L 606.596859 282.635099 
L 492.249914 417.801943 
" style="fill:none;stroke:#b0b0b0;stroke-width:0.8;"/>
    <path d="M 667.510953 63.31511 
L 656.528421 286.36477 
L 546.340219 422.227551 
" style="fill:none;stroke:#b0b0b0;stroke-width:0.8;"/>
    <path d="M 720.313125 66.678325 
L 706.706355 290.112844 
L 600.721346 426.676953 
" style="fill:none;stroke:#b0b0b0;stroke-width:0.8;"/>
   </g>
   <g id="xtick_8">
    <g id="line2d_10">
     <path d="M 174.890291 390.597392 
L 171.274721 394.022433 
" style="fill:none;stroke:#000000;stroke-linecap:square;stroke-width:0.8;"/>
    </g>
    <g id="text_10">
     <!-- 0 -->
     <g transform="translate(165.97892 411.414417)scale(0.1 -0.1)">
      <use xlink:href="#DejaVuSans-48"/>
     </g>
    </g>
   </g>
   <g id="xtick_9">
    <g id="line2d_11">
     <path d="M 227.249971 394.878136 
L 223.735604 398.321282 
" style="fill:none;stroke:#000000;stroke-linecap:square;stroke-width:0.8;"/>
    </g>
    <g id="text_11">
     <!-- 5 -->
     <g transform="translate(218.421905 415.73813)scale(0.1 -0.1)">
      <use xlink:href="#DejaVuSans-53"/>
     </g>
    </g>
   </g>
   <g id="xtick_10">
    <g id="line2d_12">
     <path d="M 279.886505 399.181515 
L 276.474463 402.64291 
" style="fill:none;stroke:#000000;stroke-linecap:square;stroke-width:0.8;"/>
    </g>
    <g id="text_12">
     <!-- 10 -->
     <g transform="translate(267.961459 420.084747)scale(0.1 -0.1)">
      <use xlink:href="#DejaVuSans-49"/>
      <use x="63.623047" xlink:href="#DejaVuSans-48"/>
     </g>
    </g>
   </g>
   <g id="xtick_11">
    <g id="line2d_13">
     <path d="M 332.802095 403.507708 
L 329.493516 406.987498 
" style="fill:none;stroke:#000000;stroke-linecap:square;stroke-width:0.8;"/>
    </g>
    <g id="text_13">
     <!-- 15 -->
     <g transform="translate(320.962292 424.454453)scale(0.1 -0.1)">
      <use xlink:href="#DejaVuSans-49"/>
      <use x="63.623047" xlink:href="#DejaVuSans-53"/>
     </g>
    </g>
   </g>
   <g id="xtick_12">
    <g id="line2d_14">
     <path d="M 385.998966 407.856898 
L 382.795 411.35523 
" style="fill:none;stroke:#000000;stroke-linecap:square;stroke-width:0.8;"/>
    </g>
    <g id="text_14">
     <!-- 20 -->
     <g transform="translate(374.245394 428.847429)scale(0.1 -0.1)">
      <use xlink:href="#DejaVuSans-50"/>
      <use x="63.623047" xlink:href="#DejaVuSans-48"/>
     </g>
    </g>
   </g>
   <g id="xtick_13">
    <g id="line2d_15">
     <path d="M 439.479366 412.229268 
L 436.381179 415.74629 
" style="fill:none;stroke:#000000;stroke-linecap:square;stroke-width:0.8;"/>
    </g>
    <g id="text_15">
     <!-- 25 -->
     <g transform="translate(427.813024 433.263865)scale(0.1 -0.1)">
      <use xlink:href="#DejaVuSans-50"/>
      <use x="63.623047" xlink:href="#DejaVuSans-53"/>
     </g>
    </g>
   </g>
   <g id="xtick_14">
    <g id="line2d_16">
     <path d="M 493.245568 416.625005 
L 490.254338 420.160867 
" style="fill:none;stroke:#000000;stroke-linecap:square;stroke-width:0.8;"/>
    </g>
    <g id="text_16">
     <!-- 30 -->
     <g transform="translate(481.667468 437.703946)scale(0.1 -0.1)">
      <use xlink:href="#DejaVuSans-51"/>
      <use x="63.623047" xlink:href="#DejaVuSans-48"/>
     </g>
    </g>
   </g>
   <g id="xtick_15">
    <g id="line2d_17">
     <path d="M 547.29987 421.044295 
L 544.416791 424.59915 
" style="fill:none;stroke:#000000;stroke-linecap:square;stroke-width:0.8;"/>
    </g>
    <g id="text_17">
     <!-- 35 -->
     <g transform="translate(535.811036 442.167865)scale(0.1 -0.1)">
      <use xlink:href="#DejaVuSans-51"/>
      <use x="63.623047" xlink:href="#DejaVuSans-53"/>
     </g>
    </g>
   </g>
   <g id="xtick_16">
    <g id="line2d_18">
     <path d="M 601.644593 425.487329 
L 598.870874 429.061329 
" style="fill:none;stroke:#000000;stroke-linecap:square;stroke-width:0.8;"/>
    </g>
    <g id="text_18">
     <!-- 40 -->
     <defs>
      <path d="M 37.796875 64.3125 
L 12.890625 25.390625 
L 37.796875 25.390625 
z
M 35.203125 72.90625 
L 47.609375 72.90625 
L 47.609375 25.390625 
L 58.015625 25.390625 
L 58.015625 17.1875 
L 47.609375 17.1875 
L 47.609375 0 
L 37.796875 0 
L 37.796875 17.1875 
L 4.890625 17.1875 
L 4.890625 26.703125 
z
" id="DejaVuSans-52"/>
     </defs>
     <g transform="translate(590.246062 446.655814)scale(0.1 -0.1)">
      <use xlink:href="#DejaVuSans-52"/>
      <use x="63.623047" xlink:href="#DejaVuSans-48"/>
     </g>
    </g>
   </g>
  </g>
  <g id="axis3d_3">
   <g id="line2d_19">
    <path d="M 144.010904 389.309421 
L 127.443514 156.001506 
" style="fill:none;stroke:#000000;stroke-linecap:square;stroke-width:0.8;"/>
   </g>
   <g id="text_19">
    <!-- y -->
    <defs>
     <path d="M 32.171875 -5.078125 
Q 28.375 -14.84375 24.75 -17.8125 
Q 21.140625 -20.796875 15.09375 -20.796875 
L 7.90625 -20.796875 
L 7.90625 -13.28125 
L 13.1875 -13.28125 
Q 16.890625 -13.28125 18.9375 -11.515625 
Q 21 -9.765625 23.484375 -3.21875 
L 25.09375 0.875 
L 2.984375 54.6875 
L 12.5 54.6875 
L 29.59375 11.921875 
L 46.6875 54.6875 
L 56.203125 54.6875 
z
" id="DejaVuSans-121"/>
    </defs>
    <g transform="translate(86.953848 285.751364)scale(0.1 -0.1)">
     <use xlink:href="#DejaVuSans-121"/>
    </g>
   </g>
   <g id="Line3DCollection_3">
    <path d="M 142.130678 362.831406 
L 283.68939 233.498133 
L 726.931703 266.051038 
" style="fill:none;stroke:#b0b0b0;stroke-width:0.8;"/>
    <path d="M 139.95206 332.151323 
L 282.62782 204.463036 
L 728.853223 236.587825 
" style="fill:none;stroke:#b0b0b0;stroke-width:0.8;"/>
    <path d="M 137.741732 301.024696 
L 281.552068 175.040047 
L 730.800991 206.722143 
" style="fill:none;stroke:#b0b0b0;stroke-width:0.8;"/>
    <path d="M 135.498997 269.441704 
L 280.461847 145.221342 
L 732.775548 176.445689 
" style="fill:none;stroke:#b0b0b0;stroke-width:0.8;"/>
    <path d="M 133.223138 237.392236 
L 279.356865 114.998881 
L 734.777452 145.74993 
" style="fill:none;stroke:#b0b0b0;stroke-width:0.8;"/>
    <path d="M 130.913414 204.865882 
L 278.236819 84.36441 
L 736.807274 114.626095 
" style="fill:none;stroke:#b0b0b0;stroke-width:0.8;"/>
    <path d="M 128.569065 171.851916 
L 277.101399 53.309446 
L 738.865602 83.065165 
" style="fill:none;stroke:#b0b0b0;stroke-width:0.8;"/>
   </g>
   <g id="xtick_17">
    <g id="line2d_20">
     <path d="M 143.362162 361.706276 
L 139.662487 365.086435 
" style="fill:none;stroke:#000000;stroke-linecap:square;stroke-width:0.8;"/>
    </g>
    <g id="text_20">
     <!-- 100 -->
     <g transform="translate(111.90283 373.852913)scale(0.1 -0.1)">
      <use xlink:href="#DejaVuSans-49"/>
      <use x="63.623047" xlink:href="#DejaVuSans-48"/>
      <use x="127.246094" xlink:href="#DejaVuSans-48"/>
     </g>
    </g>
   </g>
   <g id="xtick_18">
    <g id="line2d_21">
     <path d="M 141.193982 331.039859 
L 137.46291 334.378998 
" style="fill:none;stroke:#000000;stroke-linecap:square;stroke-width:0.8;"/>
    </g>
    <g id="text_21">
     <!-- 200 -->
     <g transform="translate(109.569742 343.131323)scale(0.1 -0.1)">
      <use xlink:href="#DejaVuSans-50"/>
      <use x="63.623047" xlink:href="#DejaVuSans-48"/>
      <use x="127.246094" xlink:href="#DejaVuSans-48"/>
     </g>
    </g>
   </g>
   <g id="xtick_19">
    <g id="line2d_22">
     <path d="M 138.994267 299.927415 
L 135.231273 303.223976 
" style="fill:none;stroke:#000000;stroke-linecap:square;stroke-width:0.8;"/>
    </g>
    <g id="text_22">
     <!-- 300 -->
     <g transform="translate(107.202622 311.961613)scale(0.1 -0.1)">
      <use xlink:href="#DejaVuSans-51"/>
      <use x="63.623047" xlink:href="#DejaVuSans-48"/>
      <use x="127.246094" xlink:href="#DejaVuSans-48"/>
     </g>
    </g>
   </g>
   <g id="xtick_20">
    <g id="line2d_23">
     <path d="M 136.762324 268.359144 
L 132.966869 271.611514 
" style="fill:none;stroke:#000000;stroke-linecap:square;stroke-width:0.8;"/>
    </g>
    <g id="text_23">
     <!-- 400 -->
     <g transform="translate(104.800721 280.333903)scale(0.1 -0.1)">
      <use xlink:href="#DejaVuSans-52"/>
      <use x="63.623047" xlink:href="#DejaVuSans-48"/>
      <use x="127.246094" xlink:href="#DejaVuSans-48"/>
     </g>
    </g>
   </g>
   <g id="xtick_21">
    <g id="line2d_24">
     <path d="M 134.49744 236.324953 
L 130.668971 239.531462 
" style="fill:none;stroke:#000000;stroke-linecap:square;stroke-width:0.8;"/>
    </g>
    <g id="text_24">
     <!-- 500 -->
     <g transform="translate(102.363265 248.238026)scale(0.1 -0.1)">
      <use xlink:href="#DejaVuSans-53"/>
      <use x="63.623047" xlink:href="#DejaVuSans-48"/>
      <use x="127.246094" xlink:href="#DejaVuSans-48"/>
     </g>
    </g>
   </g>
   <g id="xtick_22">
    <g id="line2d_25">
     <path d="M 132.198879 203.81445 
L 128.336832 206.973367 
" style="fill:none;stroke:#000000;stroke-linecap:square;stroke-width:0.8;"/>
    </g>
    <g id="text_25">
     <!-- 600 -->
     <defs>
      <path d="M 33.015625 40.375 
Q 26.375 40.375 22.484375 35.828125 
Q 18.609375 31.296875 18.609375 23.390625 
Q 18.609375 15.53125 22.484375 10.953125 
Q 26.375 6.390625 33.015625 6.390625 
Q 39.65625 6.390625 43.53125 10.953125 
Q 47.40625 15.53125 47.40625 23.390625 
Q 47.40625 31.296875 43.53125 35.828125 
Q 39.65625 40.375 33.015625 40.375 
z
M 52.59375 71.296875 
L 52.59375 62.3125 
Q 48.875 64.0625 45.09375 64.984375 
Q 41.3125 65.921875 37.59375 65.921875 
Q 27.828125 65.921875 22.671875 59.328125 
Q 17.53125 52.734375 16.796875 39.40625 
Q 19.671875 43.65625 24.015625 45.921875 
Q 28.375 48.1875 33.59375 48.1875 
Q 44.578125 48.1875 50.953125 41.515625 
Q 57.328125 34.859375 57.328125 23.390625 
Q 57.328125 12.15625 50.6875 5.359375 
Q 44.046875 -1.421875 33.015625 -1.421875 
Q 20.359375 -1.421875 13.671875 8.265625 
Q 6.984375 17.96875 6.984375 36.375 
Q 6.984375 53.65625 15.1875 63.9375 
Q 23.390625 74.21875 37.203125 74.21875 
Q 40.921875 74.21875 44.703125 73.484375 
Q 48.484375 72.75 52.59375 71.296875 
z
" id="DejaVuSans-54"/>
     </defs>
     <g transform="translate(99.88946 215.663508)scale(0.1 -0.1)">
      <use xlink:href="#DejaVuSans-54"/>
      <use x="63.623047" xlink:href="#DejaVuSans-48"/>
      <use x="127.246094" xlink:href="#DejaVuSans-48"/>
     </g>
    </g>
   </g>
   <g id="xtick_23">
    <g id="line2d_26">
     <path d="M 129.865885 170.816934 
L 125.969679 173.926466 
" style="fill:none;stroke:#000000;stroke-linecap:square;stroke-width:0.8;"/>
    </g>
    <g id="text_26">
     <!-- 700 -->
     <defs>
      <path d="M 8.203125 72.90625 
L 55.078125 72.90625 
L 55.078125 68.703125 
L 28.609375 0 
L 18.3125 0 
L 43.21875 64.59375 
L 8.203125 64.59375 
z
" id="DejaVuSans-55"/>
     </defs>
     <g transform="translate(97.378487 182.599563)scale(0.1 -0.1)">
      <use xlink:href="#DejaVuSans-55"/>
      <use x="63.623047" xlink:href="#DejaVuSans-48"/>
      <use x="127.246094" xlink:href="#DejaVuSans-48"/>
     </g>
    </g>
   </g>
  </g>
  <g id="axes_1">
   <g id="line2d_27">
    <path clip-path="url(#p733935ded3)" d="M 223.597698 314.03336 
L 233.425065 316.244127 
L 240.542659 319.32411 
L 246.238644 325.444104 
L 250.078874 331.277554 
L 253.253301 338.875266 
L 265.475143 338.631084 
L 275.320787 340.596205 
L 287.687138 339.320328 
L 296.79712 340.426112 
L 305.480081 342.34451 
L 312.850201 348.413449 
L 323.434225 349.514196 
L 336.240717 348.903735 
L 347.562422 348.395286 
L 361.64 347.949725 
L 370.673592 346.691865 
L 385.742428 335.32358 
L 396.507132 340.510113 
L 407.743149 338.522179 
L 420.377749 336.779531 
L 432.113277 337.846574 
L 441.34905 347.516278 
L 451.955625 349.871464 
L 458.773718 355.511713 
L 468.976614 349.934759 
L 476.96598 349.308362 
L 485.303453 353.272552 
L 499.275737 348.019656 
L 509.89971 357.881985 
L 519.992484 359.29318 
L 528.63825 343.07317 
L 537.080616 338.39637 
L 548.291886 335.735171 
L 556.397805 352.836503 
L 569.960932 344.308729 
L 584.605574 328.742176 
L 658.353162 216.774155 
L 675.77795 208.807018 
L 693.4261 200.698215 
" style="fill:none;stroke:#1f77b4;stroke-linecap:square;stroke-width:1.5;"/>
   </g>
   <g id="line2d_28">
    <path clip-path="url(#p733935ded3)" d="M 213.639681 301.418916 
L 224.149244 302.165023 
L 229.972731 305.577668 
L 234.416328 312.013422 
L 240.738737 315.024997 
L 244.500549 321.161229 
L 257.455233 319.425154 
L 266.740385 321.098788 
L 279.872736 318.776343 
L 289.052906 319.880011 
L 298.453539 321.589652 
L 305.250301 328.325122 
L 315.359733 330.933632 
L 327.072319 330.62477 
L 338.547943 330.581748 
L 352.840942 331.908141 
L 364.405901 331.267839 
L 379.053932 322.187362 
L 391.621218 323.43556 
L 401.247092 325.405975 
L 416.856825 320.65688 
L 425.833011 326.115399 
L 437.418638 333.393085 
L 448.090377 337.555024 
L 454.958547 340.10909 
L 466.882431 332.179277 
L 475.459343 332.218517 
L 482.196069 337.563704 
L 495.195256 332.600879 
L 506.477633 339.319948 
L 516.679083 339.402 
L 525.343377 324.243417 
L 538.646171 314.361076 
L 551.462329 311.176858 
L 563.318889 320.966596 
L 575.991635 309.582075 
L 592.625277 294.700658 
L 606.269671 295.37048 
L 627.029642 274.008916 
L 640.015902 270.704672 
" style="fill:none;stroke:#ff7f0e;stroke-linecap:square;stroke-width:1.5;"/>
   </g>
   <g id="line2d_29">
    <path clip-path="url(#p733935ded3)" d="M 262.621154 256.55298 
L 273.45059 256.698861 
L 280.036729 259.587118 
L 285.064979 267.379455 
L 291.619179 272.130696 
L 292.506641 281.148261 
L 303.274796 282.958719 
L 311.765275 287.766304 
L 322.620152 288.2175 
L 330.536736 291.169169 
L 339.688836 292.838746 
L 349.408358 295.865913 
L 359.758268 296.086911 
L 371.647962 293.945211 
L 384.417673 290.911499 
L 394.198068 293.283905 
L 403.660116 292.739749 
L 417.336143 283.190307 
L 427.989155 287.370872 
L 438.986284 287.609604 
L 451.378532 285.518666 
L 461.356242 287.825515 
L 473.559338 294.388165 
L 484.561339 296.515936 
L 490.236373 301.832048 
L 500.937376 297.261259 
L 508.869796 296.073831 
L 519.140067 299.72885 
L 530.681383 297.001263 
L 542.146764 306.36647 
L 548.941035 311.738682 
L 552.387025 307.472673 
L 560.804622 302.277156 
L 568.768058 304.509793 
L 575.747404 320.476771 
L 585.559127 318.011763 
L 600.698482 299.284453 
L 605.811687 320.197259 
L 677.459025 193.201972 
L 640.416325 292.12895 
" style="fill:none;stroke:#2ca02c;stroke-linecap:square;stroke-width:1.5;"/>
   </g>
   <g id="line2d_30">
    <path clip-path="url(#p733935ded3)" d="M 197.407837 278.139645 
L 208.711713 277.819688 
L 215.723609 277.833845 
L 223.407533 279.937276 
L 230.356919 281.376419 
L 237.650256 275.762776 
L 251.439361 288.444651 
L 260.805383 289.627847 
L 274.118125 287.769231 
L 283.447323 290.649359 
L 292.347077 293.805025 
L 301.026481 297.416901 
L 311.152918 297.343464 
L 320.074464 306.317837 
L 329.935898 311.737799 
L 344.470721 315.789451 
L 355.657549 319.787664 
L 371.108834 313.15564 
L 380.310983 323.912682 
L 391.259372 327.761122 
L 407.030628 322.969847 
L 418.371796 329.169865 
L 427.787345 338.017625 
L 435.680054 339.126154 
L 441.469775 341.142524 
L 451.216298 333.390658 
L 460.478405 326.972499 
L 468.456258 324.347061 
L 485.620911 312.679542 
L 497.643442 315.795435 
L 511.26936 313.070993 
L 522.126307 297.834099 
L 539.347024 282.665779 
L 552.269041 279.008247 
L 563.112438 292.013552 
L 573.635584 288.337027 
L 590.433223 272.478472 
L 602.63615 275.903153 
L 621.697123 266.202119 
L 635.753465 262.598307 
" style="fill:none;stroke:#d62728;stroke-linecap:square;stroke-width:1.5;"/>
   </g>
   <g id="line2d_31">
    <path clip-path="url(#p733935ded3)" d="M 272.608212 210.953969 
L 282.870603 212.027843 
L 289.496127 213.904845 
L 297.43824 217.164093 
L 302.943471 224.527928 
L 308.081672 229.41672 
L 319.444248 231.973518 
L 329.086389 236.054856 
L 339.298361 237.982859 
L 349.593452 239.44703 
L 360.451509 240.675396 
L 367.430619 253.368232 
L 376.004906 255.264865 
L 387.870874 257.023164 
L 402.180838 249.809402 
L 414.703107 251.04038 
L 423.520289 251.055179 
L 439.798189 240.136473 
L 450.392222 243.370505 
L 462.279302 245.559377 
L 473.444096 245.074618 
L 481.225722 254.272047 
L 497.334022 256.874897 
L 509.703494 260.724993 
L 517.371587 264.069757 
L 521.795933 270.888502 
L 531.659653 269.978238 
L 540.768198 273.004443 
L 552.071699 272.064329 
L 566.818386 277.749054 
L 573.93263 284.995103 
L 575.476575 286.712205 
L 581.248234 287.469376 
L 583.465004 302.147393 
L 581.760367 330.213043 
L 591.784858 333.323688 
L 596.151859 332.24837 
L 601.616325 277.099613 
L 609.246983 327.369815 
L 629.192578 306.263489 
" style="fill:none;stroke:#9467bd;stroke-linecap:square;stroke-width:1.5;"/>
   </g>
   <g id="line2d_32">
    <path clip-path="url(#p733935ded3)" d="M 207.623337 277.382891 
L 219.510464 276.93394 
L 227.81995 275.744292 
L 234.70258 276.658188 
L 242.853308 274.631985 
L 245.638285 273.157174 
L 251.947594 269.660754 
L 262.549134 267.818471 
L 277.141029 264.36557 
L 287.214967 268.89344 
L 301.170333 268.64195 
L 310.713494 278.822583 
L 321.173103 291.771834 
L 330.75867 304.564654 
L 332.000757 318.432516 
L 351.40541 322.043575 
L 360.066913 326.22342 
L 377.812638 318.967988 
L 388.743734 329.557933 
L 403.02906 328.886103 
L 414.620307 330.119821 
L 425.307415 336.831672 
L 436.874345 344.964954 
L 432.233377 334.827167 
L 449.368284 348.881996 
L 460.757799 338.92105 
L 468.306189 329.531579 
L 475.123745 328.630649 
L 489.395249 318.770964 
L 499.148025 325.655963 
L 511.134765 321.62579 
L 519.839791 306.191524 
L 529.410115 304.105874 
L 539.587467 308.51902 
L 549.524774 321.347146 
L 562.116254 318.43168 
L 579.025278 301.111286 
L 591.800081 304.358853 
L 612.065186 291.882218 
L 626.196896 288.630684 
" style="fill:none;stroke:#8c564b;stroke-linecap:square;stroke-width:1.5;"/>
   </g>
   <g id="line2d_33">
    <path clip-path="url(#p733935ded3)" d="M 248.762775 243.139157 
L 259.050838 242.073731 
L 265.088601 246.87782 
L 266.331013 253.712169 
L 272.692715 253.700773 
L 277.591849 253.047379 
L 293.901081 244.883088 
L 307.83302 240.185441 
L 324.18886 235.184447 
L 338.715237 232.794181 
L 353.239185 232.881196 
L 369.400727 232.402155 
L 380.982853 240.673271 
L 396.208154 240.414687 
L 411.055502 240.521807 
L 422.974545 247.486388 
L 430.655586 252.064389 
L 444.12324 246.118173 
L 453.592485 253.866163 
L 463.821838 255.99616 
L 476.001834 253.535854 
L 485.888189 257.01528 
L 499.297197 262.812973 
L 511.10082 268.027436 
L 520.259183 270.138574 
L 528.317512 269.167232 
L 537.125908 268.952737 
L 543.03588 281.353675 
L 557.164752 280.907443 
L 568.629927 297.507625 
L 574.524526 312.228163 
L 579.609527 306.741261 
L 581.999376 308.678791 
L 587.201788 318.987197 
L 587.680104 353.358833 
L 592.09922 351.661931 
L 599.062434 344.191222 
L 591.800081 304.358853 
L 600.353022 372.094553 
L 618.992698 325.527391 
" style="fill:none;stroke:#e377c2;stroke-linecap:square;stroke-width:1.5;"/>
   </g>
   <g id="line2d_34">
    <path clip-path="url(#p733935ded3)" d="M 226.251187 222.260828 
L 238.151521 223.130019 
L 246.598279 223.107987 
L 252.973371 228.066053 
L 259.543415 232.90339 
L 264.63142 236.672731 
L 277.008274 237.357577 
L 287.617885 240.040292 
L 299.511406 241.267618 
L 308.807305 243.562819 
L 316.360617 246.412833 
L 325.665968 249.291644 
L 335.756553 251.439979 
L 348.059518 250.92317 
L 358.929361 252.92166 
L 371.388706 255.646527 
L 382.318982 254.781784 
L 398.136393 245.514783 
L 409.585368 247.989235 
L 421.475522 247.086892 
L 434.204361 247.257674 
L 443.251706 254.443366 
L 456.983799 255.935773 
L 467.68501 259.282689 
L 474.018809 264.402633 
L 483.801014 262.190689 
L 492.939976 263.30795 
L 499.686244 270.67862 
L 513.164205 266.467817 
L 526.614886 269.095878 
L 536.785213 268.711508 
L 543.84925 261.621464 
L 556.441776 258.188055 
L 569.216517 254.573486 
L 579.423783 265.426904 
L 591.418939 259.511862 
L 606.356094 250.116734 
L 621.454893 248.237904 
L 639.979191 242.869921 
L 655.535542 230.5285 
" style="fill:none;stroke:#7f7f7f;stroke-linecap:square;stroke-width:1.5;"/>
   </g>
   <g id="line2d_35">
    <path clip-path="url(#p733935ded3)" d="M 258.315043 198.759984 
L 270.552135 198.648082 
L 280.814382 196.866319 
L 287.628583 200.755471 
L 295.473283 203.766192 
L 298.808236 209.858247 
L 310.28551 211.557407 
L 319.441792 215.768836 
L 331.581668 216.504031 
L 340.776021 218.214285 
L 347.636274 221.52308 
L 353.965231 228.801926 
L 362.669122 230.696717 
L 374.775963 233.77674 
L 386.558533 234.629701 
L 397.612822 238.442751 
L 406.596435 238.870188 
L 422.092466 229.791501 
L 432.281013 233.720023 
L 446.111672 231.993933 
L 458.568655 231.733088 
L 468.069663 237.256158 
L 478.698564 245.617964 
L 488.177195 249.973432 
L 494.415363 256.339944 
L 503.098738 253.020238 
L 511.078809 253.477952 
L 519.894295 256.656942 
L 532.585962 253.136294 
L 545.298987 256.707712 
L 553.235464 259.082734 
L 558.768606 254.185338 
L 568.148654 252.926308 
L 579.823054 248.704716 
L 590.834864 260.122397 
L 601.68388 256.321181 
L 616.034861 246.224871 
L 630.472696 244.948725 
L 650.327457 235.274989 
L 661.843746 229.357222 
" style="fill:none;stroke:#bcbd22;stroke-linecap:square;stroke-width:1.5;"/>
   </g>
   <g id="line2d_36">
    <path clip-path="url(#p733935ded3)" d="M 207.180617 193.327706 
L 216.27108 201.113443 
L 218.873026 206.206043 
L 226.112361 211.533329 
L 234.591114 213.836549 
L 240.24253 214.762202 
L 254.38244 217.538835 
L 265.76809 216.427913 
L 280.418699 212.153448 
L 292.98599 210.713548 
L 304.385413 208.656313 
L 315.663009 208.960341 
L 328.326581 206.070727 
L 344.478993 201.146434 
L 359.605031 192.825108 
L 374.573928 191.48732 
L 390.332227 186.178534 
L 408.617517 179.825363 
L 424.14587 174.823608 
L 437.750884 186.41458 
L 452.673446 181.771324 
L 464.552612 180.248808 
L 476.51712 180.812643 
L 489.443674 178.40403 
L 497.461634 177.979961 
L 506.787987 177.397025 
L 513.770951 181.992414 
L 521.11848 186.74703 
L 534.015024 183.119378 
L 542.630839 195.519828 
L 552.850386 193.725231 
L 559.450398 189.880568 
L 560.415494 203.936757 
L 571.196355 203.500337 
L 583.194369 208.723456 
L 595.246705 204.960407 
L 607.850676 197.008069 
L 622.151934 195.94188 
L 640.019028 190.155547 
L 652.658493 186.139185 
" style="fill:none;stroke:#17becf;stroke-linecap:square;stroke-width:1.5;"/>
   </g>
   <g id="line2d_37">
    <path clip-path="url(#p733935ded3)" d="M 236.069599 164.581444 
L 252.782778 155.252492 
L 263.082187 150.264977 
L 274.311507 147.638371 
L 285.319875 146.987776 
L 295.474957 147.081145 
L 307.906324 153.742588 
L 320.836571 155.648414 
L 332.56399 159.288177 
L 343.105386 162.140916 
L 351.246307 165.555932 
L 361.184573 169.078329 
L 368.818237 174.258678 
L 378.693062 181.345839 
L 391.697986 179.873835 
L 401.168481 190.733441 
L 408.587157 202.692286 
L 421.964934 203.913629 
L 429.428189 217.376896 
L 437.246983 227.149329 
L 449.27624 228.800982 
L 458.839783 233.966883 
L 470.171356 239.126481 
L 481.355553 240.52836 
L 488.234708 240.986206 
L 499.692766 231.610818 
L 509.940133 225.260637 
L 519.990246 221.416889 
L 535.48969 211.41977 
L 552.074592 204.911206 
L 563.682251 202.400899 
L 570.394479 194.554663 
L 582.858771 190.696894 
L 595.456219 188.492475 
L 608.992289 193.749785 
L 619.800051 191.173613 
L 635.228475 177.305113 
L 648.642018 176.854855 
L 663.339778 170.014516 
L 677.053832 164.538416 
" style="fill:none;stroke:#1f77b4;stroke-linecap:square;stroke-width:1.5;"/>
   </g>
   <g id="line2d_38">
    <path clip-path="url(#p733935ded3)" d="M 243.90702 134.36756 
L 249.254466 134.072533 
L 249.965696 134.694588 
L 248.910321 134.720798 
L 248.969108 141.452481 
L 244.680242 146.615447 
L 254.330731 152.976252 
L 262.702742 157.451693 
L 276.415101 158.151602 
L 288.528838 157.762547 
L 302.680373 154.78846 
L 318.44795 148.86829 
L 334.957992 142.214423 
L 353.665456 135.627568 
L 370.064221 126.355598 
L 387.47737 123.887725 
L 403.239557 120.22085 
L 421.540991 117.890386 
L 436.539626 113.087571 
L 451.2353 110.433429 
L 466.18262 109.230797 
L 478.097786 113.752433 
L 492.161388 116.846458 
L 504.51038 119.211985 
L 514.118783 118.43392 
L 524.961649 123.909386 
L 535.090632 126.110512 
L 541.328509 134.046916 
L 557.19659 127.293292 
L 567.914286 134.663733 
L 576.377007 138.579057 
L 578.290227 145.69322 
L 589.328071 142.019421 
L 592.605257 157.465715 
L 603.697306 155.077572 
L 610.978685 160.862157 
L 625.052926 139.636749 
L 636.917311 138.604814 
L 647.977717 137.917658 
L 657.592574 140.468044 
" style="fill:none;stroke:#ff7f0e;stroke-linecap:square;stroke-width:1.5;"/>
   </g>
   <g id="line2d_39">
    <path clip-path="url(#p733935ded3)" d="M 262.843268 91.317744 
L 280.662312 82.539389 
L 293.570871 78.614639 
L 306.986694 73.170352 
L 320.506744 74.016231 
L 328.712824 73.29601 
L 342.69762 79.440469 
L 351.940322 89.035799 
L 362.921459 97.834216 
L 369.492561 111.849757 
L 375.362319 123.522543 
L 384.166317 132.050142 
L 392.920083 139.227741 
L 400.396205 149.673711 
L 410.389881 151.376098 
L 416.955839 163.878877 
L 423.717792 172.25418 
L 436.417217 170.472162 
L 446.101157 173.573869 
L 454.964716 177.673916 
L 466.913466 179.393063 
L 479.208776 178.646924 
L 494.151446 176.046264 
L 506.317015 177.738312 
L 514.69218 180.401688 
L 528.147759 173.68784 
L 542.382981 164.846424 
L 555.284238 160.472102 
L 575.31694 146.902978 
L 589.305615 149.004144 
L 599.984307 150.259582 
L 609.681822 140.855415 
L 616.959799 142.771224 
L 630.245353 138.692723 
L 642.815878 143.736981 
L 654.48293 137.408198 
L 668.460839 128.919872 
L 662.852653 97.005879 
L 659.870066 120.800448 
L 698.964684 87.85861 
" style="fill:none;stroke:#2ca02c;stroke-linecap:square;stroke-width:1.5;"/>
   </g>
   <g id="text_27">
    <!-- Pose for tracker 7 -->
    <defs>
     <path d="M 19.671875 64.796875 
L 19.671875 37.40625 
L 32.078125 37.40625 
Q 38.96875 37.40625 42.71875 40.96875 
Q 46.484375 44.53125 46.484375 51.125 
Q 46.484375 57.671875 42.71875 61.234375 
Q 38.96875 64.796875 32.078125 64.796875 
z
M 9.8125 72.90625 
L 32.078125 72.90625 
Q 44.34375 72.90625 50.609375 67.359375 
Q 56.890625 61.8125 56.890625 51.125 
Q 56.890625 40.328125 50.609375 34.8125 
Q 44.34375 29.296875 32.078125 29.296875 
L 19.671875 29.296875 
L 19.671875 0 
L 9.8125 0 
z
" id="DejaVuSans-80"/>
     <path d="M 30.609375 48.390625 
Q 23.390625 48.390625 19.1875 42.75 
Q 14.984375 37.109375 14.984375 27.296875 
Q 14.984375 17.484375 19.15625 11.84375 
Q 23.34375 6.203125 30.609375 6.203125 
Q 37.796875 6.203125 41.984375 11.859375 
Q 46.1875 17.53125 46.1875 27.296875 
Q 46.1875 37.015625 41.984375 42.703125 
Q 37.796875 48.390625 30.609375 48.390625 
z
M 30.609375 56 
Q 42.328125 56 49.015625 48.375 
Q 55.71875 40.765625 55.71875 27.296875 
Q 55.71875 13.875 49.015625 6.21875 
Q 42.328125 -1.421875 30.609375 -1.421875 
Q 18.84375 -1.421875 12.171875 6.21875 
Q 5.515625 13.875 5.515625 27.296875 
Q 5.515625 40.765625 12.171875 48.375 
Q 18.84375 56 30.609375 56 
z
" id="DejaVuSans-111"/>
     <path d="M 44.28125 53.078125 
L 44.28125 44.578125 
Q 40.484375 46.53125 36.375 47.5 
Q 32.28125 48.484375 27.875 48.484375 
Q 21.1875 48.484375 17.84375 46.4375 
Q 14.5 44.390625 14.5 40.28125 
Q 14.5 37.15625 16.890625 35.375 
Q 19.28125 33.59375 26.515625 31.984375 
L 29.59375 31.296875 
Q 39.15625 29.25 43.1875 25.515625 
Q 47.21875 21.78125 47.21875 15.09375 
Q 47.21875 7.46875 41.1875 3.015625 
Q 35.15625 -1.421875 24.609375 -1.421875 
Q 20.21875 -1.421875 15.453125 -0.5625 
Q 10.6875 0.296875 5.421875 2 
L 5.421875 11.28125 
Q 10.40625 8.6875 15.234375 7.390625 
Q 20.0625 6.109375 24.8125 6.109375 
Q 31.15625 6.109375 34.5625 8.28125 
Q 37.984375 10.453125 37.984375 14.40625 
Q 37.984375 18.0625 35.515625 20.015625 
Q 33.0625 21.96875 24.703125 23.78125 
L 21.578125 24.515625 
Q 13.234375 26.265625 9.515625 29.90625 
Q 5.8125 33.546875 5.8125 39.890625 
Q 5.8125 47.609375 11.28125 51.796875 
Q 16.75 56 26.8125 56 
Q 31.78125 56 36.171875 55.265625 
Q 40.578125 54.546875 44.28125 53.078125 
z
" id="DejaVuSans-115"/>
     <path d="M 56.203125 29.59375 
L 56.203125 25.203125 
L 14.890625 25.203125 
Q 15.484375 15.921875 20.484375 11.0625 
Q 25.484375 6.203125 34.421875 6.203125 
Q 39.59375 6.203125 44.453125 7.46875 
Q 49.3125 8.734375 54.109375 11.28125 
L 54.109375 2.78125 
Q 49.265625 0.734375 44.1875 -0.34375 
Q 39.109375 -1.421875 33.890625 -1.421875 
Q 20.796875 -1.421875 13.15625 6.1875 
Q 5.515625 13.8125 5.515625 26.8125 
Q 5.515625 40.234375 12.765625 48.109375 
Q 20.015625 56 32.328125 56 
Q 43.359375 56 49.78125 48.890625 
Q 56.203125 41.796875 56.203125 29.59375 
z
M 47.21875 32.234375 
Q 47.125 39.59375 43.09375 43.984375 
Q 39.0625 48.390625 32.421875 48.390625 
Q 24.90625 48.390625 20.390625 44.140625 
Q 15.875 39.890625 15.1875 32.171875 
z
" id="DejaVuSans-101"/>
     <path id="DejaVuSans-32"/>
     <path d="M 37.109375 75.984375 
L 37.109375 68.5 
L 28.515625 68.5 
Q 23.6875 68.5 21.796875 66.546875 
Q 19.921875 64.59375 19.921875 59.515625 
L 19.921875 54.6875 
L 34.71875 54.6875 
L 34.71875 47.703125 
L 19.921875 47.703125 
L 19.921875 0 
L 10.890625 0 
L 10.890625 47.703125 
L 2.296875 47.703125 
L 2.296875 54.6875 
L 10.890625 54.6875 
L 10.890625 58.5 
Q 10.890625 67.625 15.140625 71.796875 
Q 19.390625 75.984375 28.609375 75.984375 
z
" id="DejaVuSans-102"/>
     <path d="M 41.109375 46.296875 
Q 39.59375 47.171875 37.8125 47.578125 
Q 36.03125 48 33.890625 48 
Q 26.265625 48 22.1875 43.046875 
Q 18.109375 38.09375 18.109375 28.8125 
L 18.109375 0 
L 9.078125 0 
L 9.078125 54.6875 
L 18.109375 54.6875 
L 18.109375 46.1875 
Q 20.953125 51.171875 25.484375 53.578125 
Q 30.03125 56 36.53125 56 
Q 37.453125 56 38.578125 55.875 
Q 39.703125 55.765625 41.0625 55.515625 
z
" id="DejaVuSans-114"/>
     <path d="M 34.28125 27.484375 
Q 23.390625 27.484375 19.1875 25 
Q 14.984375 22.515625 14.984375 16.5 
Q 14.984375 11.71875 18.140625 8.90625 
Q 21.296875 6.109375 26.703125 6.109375 
Q 34.1875 6.109375 38.703125 11.40625 
Q 43.21875 16.703125 43.21875 25.484375 
L 43.21875 27.484375 
z
M 52.203125 31.203125 
L 52.203125 0 
L 43.21875 0 
L 43.21875 8.296875 
Q 40.140625 3.328125 35.546875 0.953125 
Q 30.953125 -1.421875 24.3125 -1.421875 
Q 15.921875 -1.421875 10.953125 3.296875 
Q 6 8.015625 6 15.921875 
Q 6 25.140625 12.171875 29.828125 
Q 18.359375 34.515625 30.609375 34.515625 
L 43.21875 34.515625 
L 43.21875 35.40625 
Q 43.21875 41.609375 39.140625 45 
Q 35.0625 48.390625 27.6875 48.390625 
Q 23 48.390625 18.546875 47.265625 
Q 14.109375 46.140625 10.015625 43.890625 
L 10.015625 52.203125 
Q 14.9375 54.109375 19.578125 55.046875 
Q 24.21875 56 28.609375 56 
Q 40.484375 56 46.34375 49.84375 
Q 52.203125 43.703125 52.203125 31.203125 
z
" id="DejaVuSans-97"/>
     <path d="M 48.78125 52.59375 
L 48.78125 44.1875 
Q 44.96875 46.296875 41.140625 47.34375 
Q 37.3125 48.390625 33.40625 48.390625 
Q 24.65625 48.390625 19.8125 42.84375 
Q 14.984375 37.3125 14.984375 27.296875 
Q 14.984375 17.28125 19.8125 11.734375 
Q 24.65625 6.203125 33.40625 6.203125 
Q 37.3125 6.203125 41.140625 7.25 
Q 44.96875 8.296875 48.78125 10.40625 
L 48.78125 2.09375 
Q 45.015625 0.34375 40.984375 -0.53125 
Q 36.96875 -1.421875 32.421875 -1.421875 
Q 20.0625 -1.421875 12.78125 6.34375 
Q 5.515625 14.109375 5.515625 27.296875 
Q 5.515625 40.671875 12.859375 48.328125 
Q 20.21875 56 33.015625 56 
Q 37.15625 56 41.109375 55.140625 
Q 45.0625 54.296875 48.78125 52.59375 
z
" id="DejaVuSans-99"/>
     <path d="M 9.078125 75.984375 
L 18.109375 75.984375 
L 18.109375 31.109375 
L 44.921875 54.6875 
L 56.390625 54.6875 
L 27.390625 29.109375 
L 57.625 0 
L 45.90625 0 
L 18.109375 26.703125 
L 18.109375 0 
L 9.078125 0 
z
" id="DejaVuSans-107"/>
    </defs>
    <g transform="translate(379.112813 31.44)scale(0.12 -0.12)">
     <use xlink:href="#DejaVuSans-80"/>
     <use x="56.677734" xlink:href="#DejaVuSans-111"/>
     <use x="117.859375" xlink:href="#DejaVuSans-115"/>
     <use x="169.958984" xlink:href="#DejaVuSans-101"/>
     <use x="231.482422" xlink:href="#DejaVuSans-32"/>
     <use x="263.269531" xlink:href="#DejaVuSans-102"/>
     <use x="298.474609" xlink:href="#DejaVuSans-111"/>
     <use x="359.65625" xlink:href="#DejaVuSans-114"/>
     <use x="400.769531" xlink:href="#DejaVuSans-32"/>
     <use x="432.556641" xlink:href="#DejaVuSans-116"/>
     <use x="471.765625" xlink:href="#DejaVuSans-114"/>
     <use x="512.878906" xlink:href="#DejaVuSans-97"/>
     <use x="574.158203" xlink:href="#DejaVuSans-99"/>
     <use x="629.138672" xlink:href="#DejaVuSans-107"/>
     <use x="683.423828" xlink:href="#DejaVuSans-101"/>
     <use x="744.947266" xlink:href="#DejaVuSans-114"/>
     <use x="786.060547" xlink:href="#DejaVuSans-32"/>
     <use x="817.847656" xlink:href="#DejaVuSans-55"/>
    </g>
   </g>
   <g id="legend_1">
    <g id="patch_6">
     <path d="M 753.110937 202.153125 
L 857 202.153125 
Q 859 202.153125 859 200.153125 
L 859 7 
Q 859 5 857 5 
L 753.110937 5 
Q 751.110937 5 751.110937 7 
L 751.110937 200.153125 
Q 751.110937 202.153125 753.110937 202.153125 
z
" style="fill:#ffffff;opacity:0.8;stroke:#cccccc;stroke-linejoin:miter;"/>
    </g>
    <g id="line2d_40">
     <path d="M 755.110937 13.098437 
L 775.110937 13.098437 
" style="fill:none;stroke:#1f77b4;stroke-linecap:square;stroke-width:1.5;"/>
    </g>
    <g id="line2d_41"/>
    <g id="text_28">
     <!-- nose -->
     <defs>
      <path d="M 54.890625 33.015625 
L 54.890625 0 
L 45.90625 0 
L 45.90625 32.71875 
Q 45.90625 40.484375 42.875 44.328125 
Q 39.84375 48.1875 33.796875 48.1875 
Q 26.515625 48.1875 22.3125 43.546875 
Q 18.109375 38.921875 18.109375 30.90625 
L 18.109375 0 
L 9.078125 0 
L 9.078125 54.6875 
L 18.109375 54.6875 
L 18.109375 46.1875 
Q 21.34375 51.125 25.703125 53.5625 
Q 30.078125 56 35.796875 56 
Q 45.21875 56 50.046875 50.171875 
Q 54.890625 44.34375 54.890625 33.015625 
z
" id="DejaVuSans-110"/>
     </defs>
     <g transform="translate(783.110937 16.598437)scale(0.1 -0.1)">
      <use xlink:href="#DejaVuSans-110"/>
      <use x="63.378906" xlink:href="#DejaVuSans-111"/>
      <use x="124.560547" xlink:href="#DejaVuSans-115"/>
      <use x="176.660156" xlink:href="#DejaVuSans-101"/>
     </g>
    </g>
    <g id="line2d_42">
     <path d="M 755.110937 27.776563 
L 775.110937 27.776563 
" style="fill:none;stroke:#ff7f0e;stroke-linecap:square;stroke-width:1.5;"/>
    </g>
    <g id="line2d_43"/>
    <g id="text_29">
     <!-- left_shoulder -->
     <defs>
      <path d="M 9.421875 75.984375 
L 18.40625 75.984375 
L 18.40625 0 
L 9.421875 0 
z
" id="DejaVuSans-108"/>
      <path d="M 50.984375 -16.609375 
L 50.984375 -23.578125 
L -0.984375 -23.578125 
L -0.984375 -16.609375 
z
" id="DejaVuSans-95"/>
      <path d="M 54.890625 33.015625 
L 54.890625 0 
L 45.90625 0 
L 45.90625 32.71875 
Q 45.90625 40.484375 42.875 44.328125 
Q 39.84375 48.1875 33.796875 48.1875 
Q 26.515625 48.1875 22.3125 43.546875 
Q 18.109375 38.921875 18.109375 30.90625 
L 18.109375 0 
L 9.078125 0 
L 9.078125 75.984375 
L 18.109375 75.984375 
L 18.109375 46.1875 
Q 21.34375 51.125 25.703125 53.5625 
Q 30.078125 56 35.796875 56 
Q 45.21875 56 50.046875 50.171875 
Q 54.890625 44.34375 54.890625 33.015625 
z
" id="DejaVuSans-104"/>
      <path d="M 8.5 21.578125 
L 8.5 54.6875 
L 17.484375 54.6875 
L 17.484375 21.921875 
Q 17.484375 14.15625 20.5 10.265625 
Q 23.53125 6.390625 29.59375 6.390625 
Q 36.859375 6.390625 41.078125 11.03125 
Q 45.3125 15.671875 45.3125 23.6875 
L 45.3125 54.6875 
L 54.296875 54.6875 
L 54.296875 0 
L 45.3125 0 
L 45.3125 8.40625 
Q 42.046875 3.421875 37.71875 1 
Q 33.40625 -1.421875 27.6875 -1.421875 
Q 18.265625 -1.421875 13.375 4.4375 
Q 8.5 10.296875 8.5 21.578125 
z
M 31.109375 56 
z
" id="DejaVuSans-117"/>
      <path d="M 45.40625 46.390625 
L 45.40625 75.984375 
L 54.390625 75.984375 
L 54.390625 0 
L 45.40625 0 
L 45.40625 8.203125 
Q 42.578125 3.328125 38.25 0.953125 
Q 33.9375 -1.421875 27.875 -1.421875 
Q 17.96875 -1.421875 11.734375 6.484375 
Q 5.515625 14.40625 5.515625 27.296875 
Q 5.515625 40.1875 11.734375 48.09375 
Q 17.96875 56 27.875 56 
Q 33.9375 56 38.25 53.625 
Q 42.578125 51.265625 45.40625 46.390625 
z
M 14.796875 27.296875 
Q 14.796875 17.390625 18.875 11.75 
Q 22.953125 6.109375 30.078125 6.109375 
Q 37.203125 6.109375 41.296875 11.75 
Q 45.40625 17.390625 45.40625 27.296875 
Q 45.40625 37.203125 41.296875 42.84375 
Q 37.203125 48.484375 30.078125 48.484375 
Q 22.953125 48.484375 18.875 42.84375 
Q 14.796875 37.203125 14.796875 27.296875 
z
" id="DejaVuSans-100"/>
     </defs>
     <g transform="translate(783.110937 31.276563)scale(0.1 -0.1)">
      <use xlink:href="#DejaVuSans-108"/>
      <use x="27.783203" xlink:href="#DejaVuSans-101"/>
      <use x="89.306641" xlink:href="#DejaVuSans-102"/>
      <use x="122.761719" xlink:href="#DejaVuSans-116"/>
      <use x="161.970703" xlink:href="#DejaVuSans-95"/>
      <use x="211.970703" xlink:href="#DejaVuSans-115"/>
      <use x="264.070312" xlink:href="#DejaVuSans-104"/>
      <use x="327.449219" xlink:href="#DejaVuSans-111"/>
      <use x="388.630859" xlink:href="#DejaVuSans-117"/>
      <use x="452.009766" xlink:href="#DejaVuSans-108"/>
      <use x="479.792969" xlink:href="#DejaVuSans-100"/>
      <use x="543.269531" xlink:href="#DejaVuSans-101"/>
      <use x="604.792969" xlink:href="#DejaVuSans-114"/>
     </g>
    </g>
    <g id="line2d_44">
     <path d="M 755.110937 42.732813 
L 775.110937 42.732813 
" style="fill:none;stroke:#2ca02c;stroke-linecap:square;stroke-width:1.5;"/>
    </g>
    <g id="line2d_45"/>
    <g id="text_30">
     <!-- right_shoulder -->
     <defs>
      <path d="M 9.421875 54.6875 
L 18.40625 54.6875 
L 18.40625 0 
L 9.421875 0 
z
M 9.421875 75.984375 
L 18.40625 75.984375 
L 18.40625 64.59375 
L 9.421875 64.59375 
z
" id="DejaVuSans-105"/>
      <path d="M 45.40625 27.984375 
Q 45.40625 37.75 41.375 43.109375 
Q 37.359375 48.484375 30.078125 48.484375 
Q 22.859375 48.484375 18.828125 43.109375 
Q 14.796875 37.75 14.796875 27.984375 
Q 14.796875 18.265625 18.828125 12.890625 
Q 22.859375 7.515625 30.078125 7.515625 
Q 37.359375 7.515625 41.375 12.890625 
Q 45.40625 18.265625 45.40625 27.984375 
z
M 54.390625 6.78125 
Q 54.390625 -7.171875 48.1875 -13.984375 
Q 42 -20.796875 29.203125 -20.796875 
Q 24.46875 -20.796875 20.265625 -20.09375 
Q 16.0625 -19.390625 12.109375 -17.921875 
L 12.109375 -9.1875 
Q 16.0625 -11.328125 19.921875 -12.34375 
Q 23.78125 -13.375 27.78125 -13.375 
Q 36.625 -13.375 41.015625 -8.765625 
Q 45.40625 -4.15625 45.40625 5.171875 
L 45.40625 9.625 
Q 42.625 4.78125 38.28125 2.390625 
Q 33.9375 0 27.875 0 
Q 17.828125 0 11.671875 7.65625 
Q 5.515625 15.328125 5.515625 27.984375 
Q 5.515625 40.671875 11.671875 48.328125 
Q 17.828125 56 27.875 56 
Q 33.9375 56 38.28125 53.609375 
Q 42.625 51.21875 45.40625 46.390625 
L 45.40625 54.6875 
L 54.390625 54.6875 
z
" id="DejaVuSans-103"/>
     </defs>
     <g transform="translate(783.110937 46.232813)scale(0.1 -0.1)">
      <use xlink:href="#DejaVuSans-114"/>
      <use x="41.113281" xlink:href="#DejaVuSans-105"/>
      <use x="68.896484" xlink:href="#DejaVuSans-103"/>
      <use x="132.373047" xlink:href="#DejaVuSans-104"/>
      <use x="195.751953" xlink:href="#DejaVuSans-116"/>
      <use x="234.960938" xlink:href="#DejaVuSans-95"/>
      <use x="284.960938" xlink:href="#DejaVuSans-115"/>
      <use x="337.060547" xlink:href="#DejaVuSans-104"/>
      <use x="400.439453" xlink:href="#DejaVuSans-111"/>
      <use x="461.621094" xlink:href="#DejaVuSans-117"/>
      <use x="525" xlink:href="#DejaVuSans-108"/>
      <use x="552.783203" xlink:href="#DejaVuSans-100"/>
      <use x="616.259766" xlink:href="#DejaVuSans-101"/>
      <use x="677.783203" xlink:href="#DejaVuSans-114"/>
     </g>
    </g>
    <g id="line2d_46">
     <path d="M 755.110937 57.689062 
L 775.110937 57.689062 
" style="fill:none;stroke:#d62728;stroke-linecap:square;stroke-width:1.5;"/>
    </g>
    <g id="line2d_47"/>
    <g id="text_31">
     <!-- left_elbow -->
     <defs>
      <path d="M 48.6875 27.296875 
Q 48.6875 37.203125 44.609375 42.84375 
Q 40.53125 48.484375 33.40625 48.484375 
Q 26.265625 48.484375 22.1875 42.84375 
Q 18.109375 37.203125 18.109375 27.296875 
Q 18.109375 17.390625 22.1875 11.75 
Q 26.265625 6.109375 33.40625 6.109375 
Q 40.53125 6.109375 44.609375 11.75 
Q 48.6875 17.390625 48.6875 27.296875 
z
M 18.109375 46.390625 
Q 20.953125 51.265625 25.265625 53.625 
Q 29.59375 56 35.59375 56 
Q 45.5625 56 51.78125 48.09375 
Q 58.015625 40.1875 58.015625 27.296875 
Q 58.015625 14.40625 51.78125 6.484375 
Q 45.5625 -1.421875 35.59375 -1.421875 
Q 29.59375 -1.421875 25.265625 0.953125 
Q 20.953125 3.328125 18.109375 8.203125 
L 18.109375 0 
L 9.078125 0 
L 9.078125 75.984375 
L 18.109375 75.984375 
z
" id="DejaVuSans-98"/>
      <path d="M 4.203125 54.6875 
L 13.1875 54.6875 
L 24.421875 12.015625 
L 35.59375 54.6875 
L 46.1875 54.6875 
L 57.421875 12.015625 
L 68.609375 54.6875 
L 77.59375 54.6875 
L 63.28125 0 
L 52.6875 0 
L 40.921875 44.828125 
L 29.109375 0 
L 18.5 0 
z
" id="DejaVuSans-119"/>
     </defs>
     <g transform="translate(783.110937 61.189062)scale(0.1 -0.1)">
      <use xlink:href="#DejaVuSans-108"/>
      <use x="27.783203" xlink:href="#DejaVuSans-101"/>
      <use x="89.306641" xlink:href="#DejaVuSans-102"/>
      <use x="122.761719" xlink:href="#DejaVuSans-116"/>
      <use x="161.970703" xlink:href="#DejaVuSans-95"/>
      <use x="211.970703" xlink:href="#DejaVuSans-101"/>
      <use x="273.494141" xlink:href="#DejaVuSans-108"/>
      <use x="301.277344" xlink:href="#DejaVuSans-98"/>
      <use x="364.753906" xlink:href="#DejaVuSans-111"/>
      <use x="425.935547" xlink:href="#DejaVuSans-119"/>
     </g>
    </g>
    <g id="line2d_48">
     <path d="M 755.110937 72.645312 
L 775.110937 72.645312 
" style="fill:none;stroke:#9467bd;stroke-linecap:square;stroke-width:1.5;"/>
    </g>
    <g id="line2d_49"/>
    <g id="text_32">
     <!-- right_elbow -->
     <g transform="translate(783.110937 76.145312)scale(0.1 -0.1)">
      <use xlink:href="#DejaVuSans-114"/>
      <use x="41.113281" xlink:href="#DejaVuSans-105"/>
      <use x="68.896484" xlink:href="#DejaVuSans-103"/>
      <use x="132.373047" xlink:href="#DejaVuSans-104"/>
      <use x="195.751953" xlink:href="#DejaVuSans-116"/>
      <use x="234.960938" xlink:href="#DejaVuSans-95"/>
      <use x="284.960938" xlink:href="#DejaVuSans-101"/>
      <use x="346.484375" xlink:href="#DejaVuSans-108"/>
      <use x="374.267578" xlink:href="#DejaVuSans-98"/>
      <use x="437.744141" xlink:href="#DejaVuSans-111"/>
      <use x="498.925781" xlink:href="#DejaVuSans-119"/>
     </g>
    </g>
    <g id="line2d_50">
     <path d="M 755.110937 87.601562 
L 775.110937 87.601562 
" style="fill:none;stroke:#8c564b;stroke-linecap:square;stroke-width:1.5;"/>
    </g>
    <g id="line2d_51"/>
    <g id="text_33">
     <!-- left_wrist -->
     <g transform="translate(783.110937 91.101562)scale(0.1 -0.1)">
      <use xlink:href="#DejaVuSans-108"/>
      <use x="27.783203" xlink:href="#DejaVuSans-101"/>
      <use x="89.306641" xlink:href="#DejaVuSans-102"/>
      <use x="122.761719" xlink:href="#DejaVuSans-116"/>
      <use x="161.970703" xlink:href="#DejaVuSans-95"/>
      <use x="211.970703" xlink:href="#DejaVuSans-119"/>
      <use x="293.757812" xlink:href="#DejaVuSans-114"/>
      <use x="334.871094" xlink:href="#DejaVuSans-105"/>
      <use x="362.654297" xlink:href="#DejaVuSans-115"/>
      <use x="414.753906" xlink:href="#DejaVuSans-116"/>
     </g>
    </g>
    <g id="line2d_52">
     <path d="M 755.110937 102.557813 
L 775.110937 102.557813 
" style="fill:none;stroke:#e377c2;stroke-linecap:square;stroke-width:1.5;"/>
    </g>
    <g id="line2d_53"/>
    <g id="text_34">
     <!-- right_wrist -->
     <g transform="translate(783.110937 106.057813)scale(0.1 -0.1)">
      <use xlink:href="#DejaVuSans-114"/>
      <use x="41.113281" xlink:href="#DejaVuSans-105"/>
      <use x="68.896484" xlink:href="#DejaVuSans-103"/>
      <use x="132.373047" xlink:href="#DejaVuSans-104"/>
      <use x="195.751953" xlink:href="#DejaVuSans-116"/>
      <use x="234.960938" xlink:href="#DejaVuSans-95"/>
      <use x="284.960938" xlink:href="#DejaVuSans-119"/>
      <use x="366.748047" xlink:href="#DejaVuSans-114"/>
      <use x="407.861328" xlink:href="#DejaVuSans-105"/>
      <use x="435.644531" xlink:href="#DejaVuSans-115"/>
      <use x="487.744141" xlink:href="#DejaVuSans-116"/>
     </g>
    </g>
    <g id="line2d_54">
     <path d="M 755.110937 117.514063 
L 775.110937 117.514063 
" style="fill:none;stroke:#7f7f7f;stroke-linecap:square;stroke-width:1.5;"/>
    </g>
    <g id="line2d_55"/>
    <g id="text_35">
     <!-- left_hip -->
     <defs>
      <path d="M 18.109375 8.203125 
L 18.109375 -20.796875 
L 9.078125 -20.796875 
L 9.078125 54.6875 
L 18.109375 54.6875 
L 18.109375 46.390625 
Q 20.953125 51.265625 25.265625 53.625 
Q 29.59375 56 35.59375 56 
Q 45.5625 56 51.78125 48.09375 
Q 58.015625 40.1875 58.015625 27.296875 
Q 58.015625 14.40625 51.78125 6.484375 
Q 45.5625 -1.421875 35.59375 -1.421875 
Q 29.59375 -1.421875 25.265625 0.953125 
Q 20.953125 3.328125 18.109375 8.203125 
z
M 48.6875 27.296875 
Q 48.6875 37.203125 44.609375 42.84375 
Q 40.53125 48.484375 33.40625 48.484375 
Q 26.265625 48.484375 22.1875 42.84375 
Q 18.109375 37.203125 18.109375 27.296875 
Q 18.109375 17.390625 22.1875 11.75 
Q 26.265625 6.109375 33.40625 6.109375 
Q 40.53125 6.109375 44.609375 11.75 
Q 48.6875 17.390625 48.6875 27.296875 
z
" id="DejaVuSans-112"/>
     </defs>
     <g transform="translate(783.110937 121.014063)scale(0.1 -0.1)">
      <use xlink:href="#DejaVuSans-108"/>
      <use x="27.783203" xlink:href="#DejaVuSans-101"/>
      <use x="89.306641" xlink:href="#DejaVuSans-102"/>
      <use x="122.761719" xlink:href="#DejaVuSans-116"/>
      <use x="161.970703" xlink:href="#DejaVuSans-95"/>
      <use x="211.970703" xlink:href="#DejaVuSans-104"/>
      <use x="275.349609" xlink:href="#DejaVuSans-105"/>
      <use x="303.132812" xlink:href="#DejaVuSans-112"/>
     </g>
    </g>
    <g id="line2d_56">
     <path d="M 755.110937 132.470312 
L 775.110937 132.470312 
" style="fill:none;stroke:#bcbd22;stroke-linecap:square;stroke-width:1.5;"/>
    </g>
    <g id="line2d_57"/>
    <g id="text_36">
     <!-- right_hip -->
     <g transform="translate(783.110937 135.970312)scale(0.1 -0.1)">
      <use xlink:href="#DejaVuSans-114"/>
      <use x="41.113281" xlink:href="#DejaVuSans-105"/>
      <use x="68.896484" xlink:href="#DejaVuSans-103"/>
      <use x="132.373047" xlink:href="#DejaVuSans-104"/>
      <use x="195.751953" xlink:href="#DejaVuSans-116"/>
      <use x="234.960938" xlink:href="#DejaVuSans-95"/>
      <use x="284.960938" xlink:href="#DejaVuSans-104"/>
      <use x="348.339844" xlink:href="#DejaVuSans-105"/>
      <use x="376.123047" xlink:href="#DejaVuSans-112"/>
     </g>
    </g>
    <g id="line2d_58">
     <path d="M 755.110937 147.426562 
L 775.110937 147.426562 
" style="fill:none;stroke:#17becf;stroke-linecap:square;stroke-width:1.5;"/>
    </g>
    <g id="line2d_59"/>
    <g id="text_37">
     <!-- left_knee -->
     <g transform="translate(783.110937 150.926562)scale(0.1 -0.1)">
      <use xlink:href="#DejaVuSans-108"/>
      <use x="27.783203" xlink:href="#DejaVuSans-101"/>
      <use x="89.306641" xlink:href="#DejaVuSans-102"/>
      <use x="122.761719" xlink:href="#DejaVuSans-116"/>
      <use x="161.970703" xlink:href="#DejaVuSans-95"/>
      <use x="211.970703" xlink:href="#DejaVuSans-107"/>
      <use x="269.880859" xlink:href="#DejaVuSans-110"/>
      <use x="333.259766" xlink:href="#DejaVuSans-101"/>
      <use x="394.783203" xlink:href="#DejaVuSans-101"/>
     </g>
    </g>
    <g id="line2d_60">
     <path d="M 755.110937 162.382812 
L 775.110937 162.382812 
" style="fill:none;stroke:#1f77b4;stroke-linecap:square;stroke-width:1.5;"/>
    </g>
    <g id="line2d_61"/>
    <g id="text_38">
     <!-- right_knee -->
     <g transform="translate(783.110937 165.882812)scale(0.1 -0.1)">
      <use xlink:href="#DejaVuSans-114"/>
      <use x="41.113281" xlink:href="#DejaVuSans-105"/>
      <use x="68.896484" xlink:href="#DejaVuSans-103"/>
      <use x="132.373047" xlink:href="#DejaVuSans-104"/>
      <use x="195.751953" xlink:href="#DejaVuSans-116"/>
      <use x="234.960938" xlink:href="#DejaVuSans-95"/>
      <use x="284.960938" xlink:href="#DejaVuSans-107"/>
      <use x="342.871094" xlink:href="#DejaVuSans-110"/>
      <use x="406.25" xlink:href="#DejaVuSans-101"/>
      <use x="467.773438" xlink:href="#DejaVuSans-101"/>
     </g>
    </g>
    <g id="line2d_62">
     <path d="M 755.110937 177.339063 
L 775.110937 177.339063 
" style="fill:none;stroke:#ff7f0e;stroke-linecap:square;stroke-width:1.5;"/>
    </g>
    <g id="line2d_63"/>
    <g id="text_39">
     <!-- left_ankle -->
     <g transform="translate(783.110937 180.839063)scale(0.1 -0.1)">
      <use xlink:href="#DejaVuSans-108"/>
      <use x="27.783203" xlink:href="#DejaVuSans-101"/>
      <use x="89.306641" xlink:href="#DejaVuSans-102"/>
      <use x="122.761719" xlink:href="#DejaVuSans-116"/>
      <use x="161.970703" xlink:href="#DejaVuSans-95"/>
      <use x="211.970703" xlink:href="#DejaVuSans-97"/>
      <use x="273.25" xlink:href="#DejaVuSans-110"/>
      <use x="336.628906" xlink:href="#DejaVuSans-107"/>
      <use x="394.539062" xlink:href="#DejaVuSans-108"/>
      <use x="422.322266" xlink:href="#DejaVuSans-101"/>
     </g>
    </g>
    <g id="line2d_64">
     <path d="M 755.110937 192.295313 
L 775.110937 192.295313 
" style="fill:none;stroke:#2ca02c;stroke-linecap:square;stroke-width:1.5;"/>
    </g>
    <g id="line2d_65"/>
    <g id="text_40">
     <!-- right_ankle -->
     <g transform="translate(783.110937 195.795313)scale(0.1 -0.1)">
      <use xlink:href="#DejaVuSans-114"/>
      <use x="41.113281" xlink:href="#DejaVuSans-105"/>
      <use x="68.896484" xlink:href="#DejaVuSans-103"/>
      <use x="132.373047" xlink:href="#DejaVuSans-104"/>
      <use x="195.751953" xlink:href="#DejaVuSans-116"/>
      <use x="234.960938" xlink:href="#DejaVuSans-95"/>
      <use x="284.960938" xlink:href="#DejaVuSans-97"/>
      <use x="346.240234" xlink:href="#DejaVuSans-110"/>
      <use x="409.619141" xlink:href="#DejaVuSans-107"/>
      <use x="467.529297" xlink:href="#DejaVuSans-108"/>
      <use x="495.3125" xlink:href="#DejaVuSans-101"/>
     </g>
    </g>
   </g>
  </g>
 </g>
 <defs>
  <clipPath id="p733935ded3">
   <rect height="468" width="864" x="0" y="0"/>
  </clipPath>
 </defs>
</svg>
